<svg width="20" height="20" viewBox="0 0 20 20" fill="none" xmlns="http://www.w3.org/2000/svg">
<path d="M4.80004 9.60002C5.49242 9.08074 6.33456 8.80002 7.20004 8.80002C8.06552 8.80002 8.90765 9.08074 9.60004 9.60002C10.2924 10.1193 11.1346 10.4 12 10.4C12.8655 10.4 13.7077 10.1193 14.4 9.60002M4.09284 3.28322C4.08119 3.1718 4.09307 3.05916 4.12772 2.95262C4.16237 2.84607 4.21901 2.74799 4.29397 2.66473C4.36894 2.58147 4.46056 2.51489 4.56289 2.46929C4.66523 2.42369 4.776 2.40009 4.88804 2.40002H14.312C14.4241 2.40008 14.535 2.42369 14.6374 2.46934C14.7398 2.51499 14.8315 2.58165 14.9064 2.665C14.9814 2.74835 15.038 2.84653 15.0726 2.95317C15.1072 3.05981 15.119 3.17253 15.1072 3.28402L13.752 16.168C13.7105 16.5612 13.5249 16.9252 13.2309 17.1896C12.9369 17.454 12.5554 17.6002 12.16 17.6H7.04004C6.64326 17.6022 6.25982 17.4569 5.96415 17.1923C5.66849 16.9277 5.4817 16.5626 5.44004 16.168L4.09284 3.28322Z" stroke="#E5E5E5" stroke-width="2" stroke-linecap="round" stroke-linejoin="round"/>
</svg>
