<svg width="20" height="20" viewBox="0 0 20 20" fill="none" xmlns="http://www.w3.org/2000/svg">
<path d="M13.2307 17.1896C13.5247 16.9251 13.7103 16.5612 13.7519 16.168L14.0759 12.884L14.4 9.59999C13.7076 10.1193 12.8653 10.4 11.9999 10.4C11.1344 10.4 10.2923 10.1193 9.59987 9.59999C8.90748 9.0807 8.06535 8.79999 7.19987 8.79999C6.33438 8.79999 5.49225 9.0807 4.79987 9.59999L5.43987 16.168C5.48152 16.5626 5.66831 16.9276 5.96398 17.1922C6.25964 17.4569 6.64308 17.6022 7.03987 17.6H12.1599C12.5553 17.6002 12.9367 17.454 13.2307 17.1896Z" fill="#81CCE2" stroke="#81CCE2" stroke-width="2" stroke-linecap="round" stroke-linejoin="round"/>
<path d="M4.79998 9.60002C5.49236 9.08074 6.3345 8.80002 7.19998 8.80002C8.06546 8.80002 8.90759 9.08074 9.59998 9.60002C10.2924 10.1193 11.1345 10.4 12 10.4C12.8655 10.4 13.7076 10.1193 14.4 9.60002M4.09278 3.28322C4.08113 3.1718 4.09301 3.05916 4.12766 2.95262C4.16231 2.84607 4.21895 2.74799 4.29391 2.66473C4.36888 2.58147 4.46049 2.51489 4.56283 2.46929C4.66517 2.42369 4.77594 2.40009 4.88798 2.40002H14.312C14.4241 2.40008 14.5349 2.42369 14.6373 2.46934C14.7397 2.51499 14.8314 2.58165 14.9064 2.665C14.9813 2.74835 15.038 2.84653 15.0726 2.95317C15.1072 3.05981 15.119 3.17253 15.1072 3.28402L13.752 16.168C13.7105 16.5612 13.5248 16.9252 13.2308 17.1896C12.9369 17.454 12.5554 17.6002 12.16 17.6H7.03998C6.6432 17.6022 6.25975 17.4569 5.96409 17.1923C5.66843 16.9277 5.48163 16.5626 5.43998 16.168L4.09278 3.28322Z" stroke="#81CCE2" stroke-width="2" stroke-linecap="round" stroke-linejoin="round"/>
</svg>
